<svg width="540" height="112" viewBox="0 0 540 112" fill="none" xmlns="http://www.w3.org/2000/svg">
<path d="M54.4648 83.5553C55.4045 83.5553 56.3016 83.9398 57.1559 84.7087C58.0103 85.4776 58.4375 86.7164 58.4375 88.4251C58.4375 89.7921 57.4123 91.4153 55.3618 93.2949C53.3114 95.089 50.6629 96.8405 47.4164 98.5492C44.2553 100.258 40.8379 101.668 37.1642 102.778C33.4905 103.974 30.0304 104.572 26.7838 104.572C22.1704 104.572 17.8132 103.376 13.7123 100.984C9.69686 98.5919 6.40761 95.1318 3.84457 90.6037C1.28152 85.9902 -2.86443e-06 80.3942 -2.86443e-06 73.8157C-2.86443e-06 68.0062 1.06793 62.1966 3.20381 56.387C5.33968 50.5775 8.15903 44.9815 11.6619 39.5991C15.2501 34.2167 19.1801 29.2187 23.4519 24.6052C27.8091 19.9918 32.1662 15.9763 36.5234 12.5589C40.8806 9.14152 44.9388 6.49304 48.6979 4.61347C52.5425 2.64847 55.7036 1.66597 58.1812 1.66597C59.8899 1.66597 61.2568 2.30673 62.282 3.58826C63.3927 4.78435 63.948 6.10859 63.948 7.56098C63.948 8.41533 63.6917 9.26968 63.1791 10.124C62.7519 10.9784 61.983 11.6619 60.8724 12.1745C55.3191 14.9084 49.6804 18.4112 43.9563 22.683C38.2321 26.9547 32.9352 31.8245 28.0654 37.2923C23.1956 42.6747 19.2656 48.527 16.2753 54.8492C13.2851 61.0859 11.79 67.6644 11.79 74.5847C11.79 80.5651 13.1997 85.1359 16.019 88.297C18.8384 91.3726 22.683 92.9104 27.5528 92.9104C30.1158 92.9104 32.7643 92.4406 35.4982 91.5008C38.3176 90.561 40.966 89.4931 43.4436 88.297C46.0067 87.0154 48.228 85.9048 50.1076 84.965C52.0726 84.0252 53.525 83.5553 54.4648 83.5553ZM165.436 107.135C162.958 107.135 161.207 106.324 160.181 104.7C159.156 103.077 158.644 100.301 158.644 96.3706C158.644 93.2095 159.028 89.2795 159.797 84.5805C160.651 79.8816 161.677 74.7128 162.873 69.0741C164.069 63.35 165.308 57.455 166.589 51.3891C161.378 58.4802 155.611 64.1616 149.288 68.4333C143.052 72.6197 136.132 75.3536 128.528 76.6351C126.734 80.8214 124.683 84.6233 122.376 88.0407C120.07 91.4581 117.549 94.192 114.815 96.2424C112.082 98.2928 109.22 99.3181 106.229 99.3181C102.556 99.3181 99.4372 97.823 96.8742 94.8327C94.3966 91.8425 93.1577 87.4853 93.1577 81.7612C93.1577 77.8312 93.6704 74.3284 94.6956 71.2527C95.7208 68.0916 96.8742 65.8276 98.1557 64.4606C96.9596 61.2995 96.3616 57.6685 96.3616 53.5677C96.3616 48.527 97.5149 44.0844 99.8217 40.2398C102.128 36.3098 105.204 33.2769 109.049 31.141C112.893 28.9197 117.037 27.8091 121.479 27.8091C125.068 27.8091 128.271 29.475 131.091 32.807C133.91 36.139 135.32 40.9233 135.32 47.1601C135.32 52.9696 134.295 59.42 132.244 66.5111C136.943 64.7169 141.642 61.983 146.341 58.3093C151.125 54.6356 155.739 50.2357 160.181 45.1096C164.624 39.9835 168.639 34.3021 172.228 28.0654C173.168 26.5275 174.492 25.7586 176.2 25.7586C177.738 25.7586 178.934 26.2285 179.789 27.1683C180.729 28.0226 181.198 29.2187 181.198 30.7566C181.198 31.1837 180.942 32.6361 180.43 35.1137C180.002 37.5913 179.404 40.7524 178.635 44.597C177.952 48.4416 177.183 52.6706 176.329 57.2841C175.474 61.8976 174.62 66.5538 173.766 71.2527C172.997 75.9516 172.356 80.3088 171.843 84.3242C173.808 80.5651 176.03 76.4642 178.507 72.0216C180.985 67.579 183.505 63.2218 186.068 58.9501C188.717 54.5929 191.237 50.6202 193.629 47.0319C196.107 43.4436 198.285 40.5816 200.165 38.4457C202.13 36.2244 203.668 35.1137 204.778 35.1137C206.829 35.1137 208.623 35.7972 210.161 37.1642C211.699 38.5311 212.468 39.9408 212.468 41.3932C212.468 43.3582 212.254 46.3484 211.827 50.3639C211.4 54.2939 210.887 58.7365 210.289 63.6917C209.691 68.6469 209.093 73.6022 208.495 78.5574C207.897 83.5126 207.384 87.9979 206.957 92.0134C206.53 96.0288 206.316 99.019 206.316 100.984C206.316 102.266 205.761 103.419 204.65 104.444C203.54 105.469 202.301 105.982 200.934 105.982C199.994 105.982 199.182 105.683 198.499 105.085C197.901 104.572 197.431 103.376 197.089 101.497C196.748 99.6171 196.577 96.7123 196.577 92.7823C196.577 88.9377 196.705 84.7514 196.961 80.2234C197.217 75.6099 197.559 71.0391 197.986 66.5111C198.499 61.8976 199.054 57.754 199.652 54.0803C197.687 57.3268 195.423 61.2141 192.86 65.7422C190.383 70.2702 187.777 74.9264 185.043 79.7108C182.309 84.4951 179.661 88.9804 177.098 93.1668C174.534 97.3531 172.228 100.728 170.177 103.291C168.127 105.854 166.546 107.135 165.436 107.135ZM120.967 68.5615C121.992 65.315 122.804 61.8549 123.402 58.1812C124.085 54.422 124.427 50.6629 124.427 46.9038C124.427 44.6824 124 42.8883 123.145 41.5214C122.291 40.1544 121.138 39.4709 119.685 39.4709C117.464 39.4709 115.285 40.1117 113.15 41.3932C111.014 42.5893 109.22 44.298 107.767 46.5193C106.4 48.7406 105.717 51.3891 105.717 54.4647C105.717 58.3093 107.169 61.5986 110.074 64.3325C113.064 66.981 116.695 68.3906 120.967 68.5615ZM117.507 77.404C111.697 77.1477 106.998 75.439 103.41 72.2779C103.239 73.3886 103.068 74.4565 102.897 75.4817C102.726 76.4215 102.641 77.3613 102.641 78.3011C102.641 80.9496 103.068 83.0427 103.923 84.5805C104.862 86.0329 106.272 86.7591 108.152 86.7591C109.689 86.7591 111.27 85.9048 112.893 84.1961C114.516 82.4874 116.054 80.2234 117.507 77.404ZM221.734 61.5131C219.427 61.3422 218.359 59.8471 218.53 57.0278C218.615 56.3443 219.085 55.5327 219.939 54.5929C220.794 53.5677 221.776 53.0123 222.887 52.9269C225.535 52.6706 228.782 52.2862 232.627 51.7735C236.557 51.1755 240.871 50.492 245.57 49.7231C246.424 45.5368 247.45 41.1369 248.646 36.5234C249.842 31.9099 251.166 27.4246 252.618 23.0674C254.071 18.6248 255.609 14.6094 257.232 11.0211C258.855 7.43282 260.564 4.61347 262.358 2.56304C263.298 1.62325 264.152 0.982494 264.921 0.640754C265.69 0.213579 266.373 -7.63848e-06 266.971 -7.63848e-06C268.167 -7.63848e-06 269.107 0.5126 269.791 1.53782C270.56 2.56304 270.944 3.71641 270.944 4.99793C270.944 5.68141 270.816 6.36489 270.56 7.04836C268.851 11.8327 267.014 17.7277 265.049 24.7334C263.084 31.7391 260.991 39.3855 258.77 47.6727C266.63 46.3911 274.49 45.0242 282.35 43.5718C290.21 42.1194 296.959 40.7952 302.598 39.5991C304.221 38.9156 305.46 39.0437 306.314 39.9835C307.254 40.9233 307.724 41.8631 307.724 42.8029C307.724 43.999 307.382 44.896 306.699 45.4941C306.101 46.0921 305.46 46.6047 304.776 47.0319L304.648 47.1601C302.939 47.8435 300.376 48.6552 296.959 49.595C293.542 50.4493 289.612 51.3891 285.169 52.4143C280.726 53.3541 275.985 54.2939 270.944 55.2337C265.989 56.1734 261.076 57.0278 256.207 57.7967C254.242 65.315 252.234 73.0468 250.183 80.9923C248.218 88.8523 246.253 96.5841 244.288 104.188C243.434 107.264 242.452 109.186 241.341 109.955C240.316 110.809 239.205 111.236 238.009 111.236C236.642 111.236 235.446 110.724 234.421 109.698C233.481 108.673 233.353 106.58 234.036 103.419L243.391 59.719C238.265 60.4879 233.737 61.0432 229.807 61.385C225.963 61.7267 223.271 61.7694 221.734 61.5131ZM344.922 47.2882C344.922 50.0221 344.068 52.7133 342.359 55.3618C340.65 57.9249 338.386 60.4025 335.567 62.7946C332.748 65.1014 329.629 67.28 326.212 69.3304C322.794 71.3809 319.377 73.175 315.96 74.7128C312.542 76.2506 309.424 77.4894 306.604 78.4292C305.921 81.7612 305.579 84.7087 305.579 87.2717C305.579 88.895 305.964 90.0484 306.733 90.7319C307.502 91.4153 308.698 91.7571 310.321 91.7571C313.909 91.7571 317.711 91.1163 321.726 89.8348C325.742 88.5533 329.843 86.8873 334.029 84.8368C338.215 82.7864 342.231 80.6078 346.075 78.3011C349.92 75.9943 353.423 73.8157 356.584 71.7653C359.83 69.7149 362.522 68.0489 364.658 66.7674C366.793 65.4858 368.203 64.8451 368.887 64.8451C369.912 64.8451 370.681 65.1868 371.193 65.8703C371.791 66.4683 372.09 67.1945 372.09 68.0489C372.09 68.7324 371.022 70.0566 368.887 72.0216C366.836 73.9866 364.059 76.2934 360.557 78.9418C357.054 81.5049 353.124 84.1534 348.767 86.8873C344.409 89.6212 339.881 92.1843 335.182 94.5764C330.569 96.9686 326.084 98.8909 321.726 100.343C317.455 101.796 313.61 102.522 310.193 102.522C305.75 102.522 302.29 100.856 299.812 97.5239C297.335 94.192 296.096 89.0232 296.096 82.0175C296.096 77.3186 296.694 72.5769 297.89 67.7926C299.172 63.0082 300.88 58.4375 303.016 54.0803C305.238 49.6377 307.672 45.7077 310.321 42.2903C313.055 38.7874 315.917 36.0535 318.907 34.0885C321.897 32.0381 324.802 31.0129 327.621 31.0129C333.004 31.0129 337.233 32.508 340.309 35.4982C343.384 38.4884 344.922 42.4184 344.922 47.2882ZM309.296 68.5615C311.944 66.9382 314.678 65.2295 317.497 63.4354C320.317 61.6413 322.923 59.8044 325.315 57.9249C327.707 56.0453 329.629 54.0803 331.082 52.0298C332.619 49.894 333.388 47.7154 333.388 45.4941C333.388 42.333 331.68 40.7524 328.262 40.7524C326.126 40.7524 323.862 42.1194 321.47 44.8533C319.163 47.5018 316.942 50.9619 314.806 55.2337C312.67 59.5054 310.834 63.948 309.296 68.5615ZM373.913 99.5744C371.435 99.5744 369.214 98.1647 367.249 95.3453C365.284 92.526 364.301 88.895 364.301 84.4524C364.301 79.5826 364.942 74.3711 366.223 68.8178C367.59 63.2645 369.256 57.6258 371.221 51.9017C373.186 46.0921 375.109 40.4961 376.988 35.1137C377.415 34.0031 378.013 33.1914 378.782 32.6788C379.637 32.0808 380.918 31.7818 382.627 31.7818C385.703 31.7818 387.24 33.2769 387.24 36.2671C387.24 36.9506 386.899 38.4884 386.215 40.8806C385.532 43.2728 384.635 46.2203 383.524 49.7231C382.499 53.2259 381.431 57.0278 380.32 61.1287C379.209 65.1441 378.227 69.2023 377.373 73.3031C376.518 77.404 375.92 81.2059 375.578 84.7087C376.945 83.2563 378.483 81.035 380.192 78.0448C381.986 75.0546 383.908 71.6799 385.959 67.9207C388.009 64.0762 390.145 60.2316 392.366 56.387C394.588 52.457 396.809 48.8688 399.03 45.6222C401.337 42.2903 403.558 39.6418 405.694 37.6768C407.916 35.6263 409.966 34.6011 411.846 34.6011C414.58 34.6011 416.886 35.4555 418.766 37.1642C420.731 38.7874 422.226 41.6922 423.251 45.8785C424.362 49.9794 424.917 55.789 424.917 63.3073C424.917 67.3227 425.302 71.0818 426.071 74.5847C426.925 78.0875 428.249 80.9068 430.043 83.0427C431.923 85.0932 434.315 86.1184 437.22 86.1184C441.577 86.1184 445.464 85.3495 448.882 83.8116C452.299 82.1884 455.247 80.3942 457.724 78.4292C460.287 76.3788 462.423 74.5847 464.132 73.0468C465.84 71.4236 467.165 70.6119 468.105 70.6119C470.07 70.6119 471.052 71.6372 471.052 73.6876C471.052 74.5419 470.411 75.9089 469.13 77.7885C467.934 79.5826 466.225 81.633 464.004 83.9398C461.868 86.1611 459.39 88.3397 456.571 90.4756C453.837 92.526 450.889 94.2347 447.728 95.6016C444.653 96.9686 441.534 97.6521 438.373 97.6521C432.478 97.6521 427.651 96.4987 423.892 94.192C420.218 91.8852 417.484 88.0834 415.69 82.7864C413.981 77.4894 413.127 70.3984 413.127 61.5131C413.127 56.6433 412.828 53.0978 412.23 50.8765C411.717 48.5697 410.735 47.0319 409.283 46.263C408.257 48.0571 406.933 50.6202 405.31 53.9521C403.687 57.1987 401.807 60.8296 399.671 64.8451C397.621 68.8605 395.442 72.9187 393.135 77.0196C390.914 81.035 388.65 84.7514 386.343 88.1688C384.037 91.5862 381.815 94.3628 379.679 96.4987C377.543 98.5492 375.621 99.5744 373.913 99.5744ZM454.01 61.5131C451.703 61.3422 450.635 59.8471 450.806 57.0278C450.891 56.3443 451.361 55.5327 452.216 54.5929C453.07 53.5677 454.052 53.0123 455.163 52.9269C457.812 52.6706 461.058 52.2862 464.903 51.7735C468.833 51.1755 473.147 50.492 477.846 49.7231C478.7 45.5368 479.726 41.1369 480.922 36.5234C482.118 31.9099 483.442 27.4246 484.894 23.0674C486.347 18.6248 487.885 14.6094 489.508 11.0211C491.131 7.43282 492.84 4.61347 494.634 2.56304C495.574 1.62325 496.428 0.982494 497.197 0.640754C497.966 0.213579 498.649 -7.63848e-06 499.248 -7.63848e-06C500.444 -7.63848e-06 501.383 0.5126 502.067 1.53782C502.836 2.56304 503.22 3.71641 503.22 4.99793C503.22 5.68141 503.092 6.36489 502.836 7.04836C501.127 11.8327 499.29 17.7277 497.325 24.7334C495.36 31.7391 493.267 39.3855 491.046 47.6727C498.906 46.3911 506.766 45.0242 514.626 43.5718C522.486 42.1194 529.235 40.7952 534.874 39.5991C536.497 38.9156 537.736 39.0437 538.59 39.9835C539.53 40.9233 540 41.8631 540 42.8029C540 43.999 539.658 44.896 538.975 45.4941C538.377 46.0921 537.736 46.6047 537.052 47.0319L536.924 47.1601C535.216 47.8435 532.653 48.6552 529.235 49.595C525.818 50.4493 521.888 51.3891 517.445 52.4143C513.003 53.3541 508.261 54.2939 503.22 55.2337C498.265 56.1734 493.353 57.0278 488.483 57.7967C486.518 65.315 484.51 73.0468 482.46 80.9923C480.495 88.8523 478.53 96.5841 476.565 104.188C475.71 107.264 474.728 109.186 473.617 109.955C472.592 110.809 471.481 111.236 470.285 111.236C468.918 111.236 467.722 110.724 466.697 109.698C465.757 108.673 465.629 106.58 466.312 103.419L475.667 59.719C470.541 60.4879 466.013 61.0432 462.083 61.385C458.239 61.7267 455.548 61.7694 454.01 61.5131Z" fill="#F6F1F1"/>
</svg>
